<?xml version="1.0" encoding="UTF-8" standalone="no"?>
<!DOCTYPE svg PUBLIC "-//W3C//DTD SVG 1.1//EN" "http://www.w3.org/Graphics/SVG/1.1/DTD/svg11.dtd">
<svg width="100%" height="100%" viewBox="0 0 165 51" version="1.1" xmlns="http://www.w3.org/2000/svg" xmlns:xlink="http://www.w3.org/1999/xlink" xml:space="preserve" xmlns:serif="http://www.serif.com/" style="fill-rule:evenodd;clip-rule:evenodd;stroke-linejoin:round;stroke-miterlimit:2;">
    <g transform="matrix(1,0,0,1,-1137.83,191.441)">
        <g transform="matrix(0.645981,0,0,0.675041,1021.54,-207.891)">
            <path d="M180.024,80.455L180.024,24.368L208.24,24.368C213.71,24.368 218.441,25.223 222.432,26.932C226.423,28.641 229.507,31.085 231.684,34.264C233.861,37.442 234.949,41.194 234.949,45.521C234.949,49.848 233.861,53.573 231.684,56.698C229.507,59.823 226.423,62.213 222.432,63.869C218.441,65.525 213.71,66.353 208.24,66.353L190.992,66.353L199.783,58.581L199.783,80.455L180.024,80.455ZM215.106,80.455L200.704,60.023L221.637,60.023L236.205,80.455L215.106,80.455ZM199.783,60.664L190.992,52.091L206.984,52.091C209.719,52.091 211.743,51.504 213.054,50.328C214.366,49.153 215.022,47.551 215.022,45.521C215.022,43.491 214.366,41.889 213.054,40.713C211.743,39.538 209.719,38.951 206.984,38.951L190.992,38.951L199.783,30.377L199.783,60.664Z" style="fill:rgb(252,175,38);fill-rule:nonzero;"/>
            <path d="M258.67,45.2L284.793,45.2L284.793,58.822L258.67,58.822L258.67,45.2ZM260.009,66.193L289.314,66.193L289.314,80.455L240.584,80.455L240.584,24.368L288.226,24.368L288.226,38.63L260.009,38.63L260.009,66.193Z" style="fill:rgb(252,175,38);fill-rule:nonzero;"/>
            <path d="M295.117,80.455L295.117,24.368L324.003,24.368C330.534,24.368 336.283,25.503 341.251,27.773C346.219,30.044 350.098,33.262 352.889,37.428C355.68,41.595 357.076,46.563 357.076,52.331C357.076,58.154 355.68,63.162 352.889,67.355C350.098,71.548 346.219,74.78 341.251,77.05C336.283,79.32 330.534,80.455 324.003,80.455L295.117,80.455ZM314.877,65.712L323.166,65.712C325.957,65.712 328.399,65.205 330.492,64.19C332.585,63.175 334.218,61.666 335.39,59.663C336.562,57.66 337.148,55.216 337.148,52.331C337.148,49.5 336.562,47.097 335.39,45.12C334.218,43.144 332.585,41.648 330.492,40.633C328.399,39.618 325.957,39.111 323.166,39.111L314.877,39.111L314.877,65.712Z" style="fill:rgb(252,175,38);fill-rule:nonzero;"/>
            <path d="M355.259,80.455L380.88,24.368L400.305,24.368L425.926,80.455L405.496,80.455L386.573,33.342L394.276,33.342L375.354,80.455L355.259,80.455ZM370.497,70.68L375.521,57.059L402.482,57.059L407.505,70.68L370.497,70.68Z" style="fill:rgb(252,175,38);fill-rule:nonzero;"/>
            <path d="M181.908,99.471L181.908,90.178L186.584,90.178C187.49,90.178 188.274,90.319 188.935,90.603C189.596,90.886 190.107,91.291 190.468,91.817C190.829,92.344 191.009,92.966 191.009,93.683C191.009,94.4 190.829,95.017 190.468,95.535C190.107,96.052 189.596,96.448 188.935,96.723C188.274,96.997 187.49,97.134 186.584,97.134L183.726,97.134L185.182,95.847L185.182,99.471L181.908,99.471ZM187.721,99.471L185.335,96.086L188.803,96.086L191.217,99.471L187.721,99.471ZM185.182,96.192L183.726,94.771L186.376,94.771C186.829,94.771 187.164,94.674 187.381,94.479C187.599,94.285 187.707,94.019 187.707,93.683C187.707,93.346 187.599,93.081 187.381,92.886C187.164,92.691 186.829,92.594 186.376,92.594L183.726,92.594L185.182,91.173L185.182,96.192Z" style="fill:rgb(28,23,75);fill-rule:nonzero;"/>
            <path d="M196.325,99.604C195.4,99.604 194.593,99.44 193.904,99.113C193.215,98.785 192.681,98.336 192.301,97.765C191.922,97.194 191.733,96.55 191.733,95.833C191.733,95.099 191.92,94.448 192.295,93.882C192.669,93.315 193.182,92.873 193.834,92.554C194.486,92.236 195.219,92.076 196.033,92.076C196.782,92.076 197.474,92.218 198.107,92.501C198.741,92.784 199.25,93.205 199.633,93.762C200.017,94.32 200.209,95.01 200.209,95.833C200.209,95.94 200.205,96.057 200.195,96.185C200.186,96.314 200.177,96.431 200.168,96.537L194.327,96.537L194.327,95.09L198.503,95.09L197.324,95.475C197.324,95.192 197.27,94.951 197.164,94.751C197.058,94.552 196.912,94.397 196.727,94.287C196.542,94.176 196.32,94.121 196.061,94.121C195.802,94.121 195.578,94.176 195.388,94.287C195.199,94.397 195.053,94.552 194.951,94.751C194.849,94.951 194.799,95.192 194.799,95.475L194.799,95.926C194.799,96.236 194.863,96.502 194.993,96.723C195.122,96.944 195.307,97.11 195.548,97.221C195.788,97.331 196.08,97.387 196.422,97.387C196.773,97.387 197.062,97.342 197.289,97.254C197.515,97.165 197.754,97.033 198.003,96.856L199.64,98.435C199.27,98.816 198.815,99.106 198.274,99.305C197.733,99.504 197.083,99.604 196.325,99.604Z" style="fill:rgb(28,23,75);fill-rule:nonzero;"/>
            <path d="M205.566,99.471L205.566,98.183L205.344,97.838L205.344,95.395C205.344,95.041 205.231,94.771 205.004,94.585C204.778,94.4 204.41,94.307 203.902,94.307C203.559,94.307 203.212,94.358 202.861,94.459C202.51,94.561 202.209,94.7 201.959,94.878L200.96,92.899C201.404,92.634 201.936,92.43 202.556,92.289C203.175,92.147 203.781,92.076 204.373,92.076C205.677,92.076 206.688,92.355 207.405,92.913C208.121,93.47 208.48,94.355 208.48,95.568L208.48,99.471L205.566,99.471ZM203.416,99.604C202.796,99.604 202.278,99.502 201.862,99.298C201.446,99.095 201.132,98.823 200.919,98.482C200.706,98.141 200.6,97.763 200.6,97.347C200.6,96.878 200.725,96.479 200.974,96.152C201.224,95.825 201.606,95.577 202.119,95.409C202.632,95.24 203.282,95.156 204.068,95.156L205.65,95.156L205.65,96.603L204.567,96.603C204.234,96.603 203.992,96.654 203.839,96.756C203.686,96.858 203.61,97.011 203.61,97.214C203.61,97.382 203.677,97.522 203.811,97.632C203.945,97.743 204.128,97.798 204.359,97.798C204.572,97.798 204.769,97.743 204.949,97.632C205.129,97.522 205.261,97.347 205.344,97.108L205.747,97.997C205.626,98.537 205.372,98.94 204.984,99.205C204.595,99.471 204.073,99.604 203.416,99.604Z" style="fill:rgb(28,23,75);fill-rule:nonzero;"/>
            <rect x="209.827" y="89.62" width="3.135" height="9.851" style="fill:rgb(28,23,75);fill-rule:nonzero;"/>
            <path d="M221.582,93.63L225.911,93.63L225.911,95.886L221.582,95.886L221.582,93.63ZM221.804,97.108L226.66,97.108L226.66,99.471L218.586,99.471L218.586,90.178L226.479,90.178L226.479,92.541L221.804,92.541L221.804,97.108Z" style="fill:rgb(28,23,75);fill-rule:nonzero;"/>
            <path d="M230.782,99.604C230.135,99.604 229.497,99.537 228.868,99.405C228.239,99.272 227.73,99.099 227.342,98.887L228.202,96.909C228.562,97.112 228.981,97.272 229.457,97.387C229.934,97.502 230.398,97.559 230.852,97.559C231.231,97.559 231.487,97.528 231.622,97.466C231.756,97.404 231.823,97.32 231.823,97.214C231.823,97.108 231.744,97.03 231.587,96.982C231.43,96.933 231.222,96.895 230.963,96.869C230.704,96.842 230.419,96.809 230.109,96.769C229.8,96.73 229.487,96.67 229.173,96.59C228.858,96.51 228.572,96.391 228.313,96.232C228.054,96.072 227.846,95.858 227.688,95.588C227.531,95.318 227.453,94.975 227.453,94.559C227.453,94.099 227.598,93.683 227.89,93.311C228.181,92.939 228.616,92.64 229.194,92.415C229.772,92.189 230.486,92.076 231.337,92.076C231.892,92.076 232.447,92.125 233.002,92.222C233.557,92.32 234.033,92.47 234.431,92.674L233.571,94.652C233.182,94.448 232.801,94.309 232.426,94.234C232.052,94.158 231.702,94.121 231.379,94.121C230.981,94.121 230.711,94.156 230.567,94.227C230.424,94.298 230.352,94.377 230.352,94.466C230.352,94.572 230.431,94.652 230.588,94.705C230.745,94.758 230.953,94.798 231.212,94.824C231.471,94.851 231.756,94.884 232.065,94.924C232.375,94.964 232.685,95.026 232.995,95.11C233.305,95.194 233.589,95.316 233.848,95.475C234.107,95.634 234.315,95.849 234.472,96.119C234.63,96.389 234.708,96.732 234.708,97.148C234.708,97.581 234.565,97.986 234.278,98.362C233.992,98.739 233.557,99.04 232.974,99.265C232.392,99.491 231.661,99.604 230.782,99.604Z" style="fill:rgb(28,23,75);fill-rule:nonzero;"/>
            <path d="M239.302,99.604C238.257,99.604 237.443,99.363 236.861,98.88C236.278,98.398 235.987,97.657 235.987,96.656L235.987,90.576L239.122,90.576L239.122,96.63C239.122,96.851 239.185,97.024 239.309,97.148C239.434,97.272 239.589,97.334 239.774,97.334C240.042,97.334 240.278,97.267 240.482,97.134L241.231,99.219C240.99,99.352 240.701,99.449 240.364,99.511C240.026,99.573 239.672,99.604 239.302,99.604ZM234.946,94.798L234.946,92.607L240.676,92.607L240.676,94.798L234.946,94.798Z" style="fill:rgb(28,23,75);fill-rule:nonzero;"/>
            <path d="M246.602,99.471L246.602,98.183L246.38,97.838L246.38,95.395C246.38,95.041 246.267,94.771 246.04,94.585C245.813,94.4 245.446,94.307 244.937,94.307C244.595,94.307 244.248,94.358 243.897,94.459C243.545,94.561 243.244,94.7 242.995,94.878L241.996,92.899C242.44,92.634 242.972,92.43 243.591,92.289C244.211,92.147 244.817,92.076 245.409,92.076C246.713,92.076 247.723,92.355 248.44,92.913C249.157,93.47 249.515,94.355 249.515,95.568L249.515,99.471L246.602,99.471ZM244.451,99.604C243.832,99.604 243.314,99.502 242.898,99.298C242.481,99.095 242.167,98.823 241.954,98.482C241.742,98.141 241.635,97.763 241.635,97.347C241.635,96.878 241.76,96.479 242.01,96.152C242.259,95.825 242.641,95.577 243.154,95.409C243.668,95.24 244.317,95.156 245.104,95.156L246.685,95.156L246.685,96.603L245.603,96.603C245.27,96.603 245.027,96.654 244.875,96.756C244.722,96.858 244.646,97.011 244.646,97.214C244.646,97.382 244.713,97.522 244.847,97.632C244.981,97.743 245.164,97.798 245.395,97.798C245.608,97.798 245.804,97.743 245.984,97.632C246.165,97.522 246.297,97.347 246.38,97.108L246.782,97.997C246.662,98.537 246.408,98.94 246.019,99.205C245.631,99.471 245.108,99.604 244.451,99.604Z" style="fill:rgb(28,23,75);fill-rule:nonzero;"/>
            <path d="M254.525,99.604C253.48,99.604 252.666,99.363 252.084,98.88C251.501,98.398 251.21,97.657 251.21,96.656L251.21,90.576L254.345,90.576L254.345,96.63C254.345,96.851 254.408,97.024 254.532,97.148C254.657,97.272 254.812,97.334 254.997,97.334C255.265,97.334 255.501,97.267 255.705,97.134L256.454,99.219C256.213,99.352 255.924,99.449 255.587,99.511C255.249,99.573 254.895,99.604 254.525,99.604ZM250.169,94.798L250.169,92.607L255.899,92.607L255.899,94.798L250.169,94.798Z" style="fill:rgb(28,23,75);fill-rule:nonzero;"/>
            <path d="M261.214,99.604C260.29,99.604 259.483,99.44 258.794,99.113C258.105,98.785 257.57,98.336 257.191,97.765C256.812,97.194 256.622,96.55 256.622,95.833C256.622,95.099 256.81,94.448 257.184,93.882C257.559,93.315 258.072,92.873 258.724,92.554C259.376,92.236 260.109,92.076 260.923,92.076C261.672,92.076 262.364,92.218 262.997,92.501C263.631,92.784 264.139,93.205 264.523,93.762C264.907,94.32 265.099,95.01 265.099,95.833C265.099,95.94 265.094,96.057 265.085,96.185C265.076,96.314 265.067,96.431 265.057,96.537L259.217,96.537L259.217,95.09L263.393,95.09L262.213,95.475C262.213,95.192 262.16,94.951 262.054,94.751C261.947,94.552 261.802,94.397 261.617,94.287C261.432,94.176 261.21,94.121 260.951,94.121C260.692,94.121 260.468,94.176 260.278,94.287C260.088,94.397 259.943,94.552 259.841,94.751C259.739,94.951 259.688,95.192 259.688,95.475L259.688,95.926C259.688,96.236 259.753,96.502 259.883,96.723C260.012,96.944 260.197,97.11 260.438,97.221C260.678,97.331 260.969,97.387 261.312,97.387C261.663,97.387 261.952,97.342 262.179,97.254C262.405,97.165 262.643,97.033 262.893,96.856L264.53,98.435C264.16,98.816 263.705,99.106 263.164,99.305C262.623,99.504 261.973,99.604 261.214,99.604Z" style="fill:rgb(28,23,75);fill-rule:nonzero;"/>
            <path d="M270.319,99.471L270.319,90.178L275.106,90.178C276.188,90.178 277.14,90.366 277.964,90.742C278.787,91.118 279.43,91.651 279.892,92.342C280.354,93.032 280.586,93.855 280.586,94.811C280.586,95.776 280.354,96.606 279.892,97.3C279.43,97.995 278.787,98.531 277.964,98.907C277.14,99.283 276.188,99.471 275.106,99.471L270.319,99.471ZM273.593,97.028L274.967,97.028C275.429,97.028 275.834,96.944 276.181,96.776C276.528,96.608 276.798,96.358 276.992,96.026C277.187,95.694 277.284,95.289 277.284,94.811C277.284,94.342 277.187,93.944 276.992,93.616C276.798,93.289 276.528,93.041 276.181,92.873C275.834,92.705 275.429,92.621 274.967,92.621L273.593,92.621L273.593,97.028Z" style="fill:rgb(28,23,75);fill-rule:nonzero;"/>
            <path d="M281.67,99.471L281.67,92.209L284.805,92.209L284.805,99.471L281.67,99.471ZM283.237,91.625C282.664,91.625 282.206,91.479 281.864,91.187C281.522,90.895 281.351,90.532 281.351,90.098C281.351,89.664 281.522,89.302 281.864,89.01C282.206,88.717 282.664,88.571 283.237,88.571C283.811,88.571 284.269,88.709 284.611,88.983C284.953,89.257 285.124,89.611 285.124,90.045C285.124,90.505 284.953,90.884 284.611,91.18C284.269,91.477 283.811,91.625 283.237,91.625Z" style="fill:rgb(28,23,75);fill-rule:nonzero;"/>
            <path d="M289.15,99.604C288.502,99.604 287.864,99.537 287.235,99.405C286.606,99.272 286.097,99.099 285.709,98.887L286.569,96.909C286.93,97.112 287.348,97.272 287.825,97.387C288.301,97.502 288.766,97.559 289.219,97.559C289.598,97.559 289.855,97.528 289.989,97.466C290.123,97.404 290.19,97.32 290.19,97.214C290.19,97.108 290.111,97.03 289.954,96.982C289.797,96.933 289.589,96.895 289.33,96.869C289.071,96.842 288.786,96.809 288.477,96.769C288.167,96.73 287.855,96.67 287.54,96.59C287.226,96.51 286.939,96.391 286.68,96.232C286.421,96.072 286.213,95.858 286.056,95.588C285.899,95.318 285.82,94.975 285.82,94.559C285.82,94.099 285.966,93.683 286.257,93.311C286.548,92.939 286.983,92.64 287.561,92.415C288.139,92.189 288.854,92.076 289.704,92.076C290.259,92.076 290.814,92.125 291.369,92.222C291.924,92.32 292.4,92.47 292.798,92.674L291.938,94.652C291.55,94.448 291.168,94.309 290.793,94.234C290.419,94.158 290.07,94.121 289.746,94.121C289.348,94.121 289.078,94.156 288.934,94.227C288.791,94.298 288.719,94.377 288.719,94.466C288.719,94.572 288.798,94.652 288.955,94.705C289.113,94.758 289.321,94.798 289.58,94.824C289.839,94.851 290.123,94.884 290.433,94.924C290.743,94.964 291.052,95.026 291.362,95.11C291.672,95.194 291.957,95.316 292.215,95.475C292.474,95.634 292.683,95.849 292.84,96.119C292.997,96.389 293.076,96.732 293.076,97.148C293.076,97.581 292.932,97.986 292.646,98.362C292.359,98.739 291.924,99.04 291.341,99.265C290.759,99.491 290.028,99.604 289.15,99.604Z" style="fill:rgb(28,23,75);fill-rule:nonzero;"/>
            <path d="M298.086,99.604C297.217,99.604 296.444,99.444 295.769,99.126C295.094,98.807 294.564,98.362 294.181,97.792C293.797,97.221 293.605,96.568 293.605,95.833C293.605,95.099 293.797,94.448 294.181,93.882C294.564,93.315 295.094,92.873 295.769,92.554C296.444,92.236 297.217,92.076 298.086,92.076C299.011,92.076 299.802,92.267 300.458,92.647C301.115,93.028 301.568,93.554 301.818,94.227L299.39,95.369C299.233,95.032 299.041,94.789 298.814,94.639C298.588,94.488 298.34,94.413 298.072,94.413C297.841,94.413 297.626,94.466 297.427,94.572C297.228,94.678 297.071,94.835 296.955,95.043C296.84,95.251 296.782,95.515 296.782,95.833C296.782,96.152 296.84,96.418 296.955,96.63C297.071,96.842 297.228,97.002 297.427,97.108C297.626,97.214 297.841,97.267 298.072,97.267C298.34,97.267 298.588,97.192 298.814,97.041C299.041,96.891 299.233,96.648 299.39,96.311L301.818,97.453C301.568,98.126 301.115,98.652 300.458,99.033C299.802,99.413 299.011,99.604 298.086,99.604Z" style="fill:rgb(28,23,75);fill-rule:nonzero;"/>
            <path d="M305.691,99.604C305.089,99.604 304.546,99.486 304.06,99.252C303.575,99.017 303.193,98.65 302.916,98.15C302.638,97.65 302.5,97.006 302.5,96.218L302.5,92.209L305.635,92.209L305.635,95.701C305.635,96.214 305.723,96.572 305.899,96.776C306.074,96.98 306.315,97.081 306.62,97.081C306.805,97.081 306.978,97.035 307.14,96.942C307.302,96.849 307.434,96.694 307.536,96.477C307.637,96.26 307.688,95.975 307.688,95.621L307.688,92.209L310.824,92.209L310.824,99.471L307.841,99.471L307.841,97.373L308.437,97.944C308.169,98.511 307.788,98.929 307.293,99.199C306.798,99.469 306.264,99.604 305.691,99.604Z" style="fill:rgb(28,23,75);fill-rule:nonzero;"/>
            <path d="M315.168,99.604C314.521,99.604 313.882,99.537 313.253,99.405C312.625,99.272 312.116,99.099 311.727,98.887L312.588,96.909C312.948,97.112 313.367,97.272 313.843,97.387C314.319,97.502 314.784,97.559 315.237,97.559C315.617,97.559 315.873,97.528 316.007,97.466C316.141,97.404 316.208,97.32 316.208,97.214C316.208,97.108 316.13,97.03 315.973,96.982C315.815,96.933 315.607,96.895 315.348,96.869C315.089,96.842 314.805,96.809 314.495,96.769C314.185,96.73 313.873,96.67 313.559,96.59C313.244,96.51 312.958,96.391 312.699,96.232C312.44,96.072 312.231,95.858 312.074,95.588C311.917,95.318 311.838,94.975 311.838,94.559C311.838,94.099 311.984,93.683 312.275,93.311C312.567,92.939 313.001,92.64 313.58,92.415C314.158,92.189 314.872,92.076 315.723,92.076C316.278,92.076 316.833,92.125 317.388,92.222C317.943,92.32 318.419,92.47 318.817,92.674L317.957,94.652C317.568,94.448 317.187,94.309 316.812,94.234C316.437,94.158 316.088,94.121 315.765,94.121C315.367,94.121 315.096,94.156 314.953,94.227C314.81,94.298 314.738,94.377 314.738,94.466C314.738,94.572 314.817,94.652 314.974,94.705C315.131,94.758 315.339,94.798 315.598,94.824C315.857,94.851 316.141,94.884 316.451,94.924C316.761,94.964 317.071,95.026 317.381,95.11C317.691,95.194 317.975,95.316 318.234,95.475C318.493,95.634 318.701,95.849 318.858,96.119C319.016,96.389 319.094,96.732 319.094,97.148C319.094,97.581 318.951,97.986 318.664,98.362C318.377,98.739 317.943,99.04 317.36,99.265C316.777,99.491 316.047,99.604 315.168,99.604Z" style="fill:rgb(28,23,75);fill-rule:nonzero;"/>
            <path d="M322.995,99.604C322.347,99.604 321.709,99.537 321.08,99.405C320.451,99.272 319.942,99.099 319.554,98.887L320.414,96.909C320.775,97.112 321.193,97.272 321.67,97.387C322.146,97.502 322.611,97.559 323.064,97.559C323.443,97.559 323.7,97.528 323.834,97.466C323.968,97.404 324.035,97.32 324.035,97.214C324.035,97.108 323.956,97.03 323.799,96.982C323.642,96.933 323.434,96.895 323.175,96.869C322.916,96.842 322.632,96.809 322.322,96.769C322.012,96.73 321.7,96.67 321.385,96.59C321.071,96.51 320.784,96.391 320.525,96.232C320.266,96.072 320.058,95.858 319.901,95.588C319.744,95.318 319.665,94.975 319.665,94.559C319.665,94.099 319.811,93.683 320.102,93.311C320.393,92.939 320.828,92.64 321.406,92.415C321.984,92.189 322.699,92.076 323.549,92.076C324.104,92.076 324.659,92.125 325.214,92.222C325.769,92.32 326.246,92.47 326.643,92.674L325.783,94.652C325.395,94.448 325.013,94.309 324.639,94.234C324.264,94.158 323.915,94.121 323.591,94.121C323.193,94.121 322.923,94.156 322.78,94.227C322.636,94.298 322.564,94.377 322.564,94.466C322.564,94.572 322.643,94.652 322.8,94.705C322.958,94.758 323.166,94.798 323.425,94.824C323.684,94.851 323.968,94.884 324.278,94.924C324.588,94.964 324.898,95.026 325.207,95.11C325.517,95.194 325.802,95.316 326.061,95.475C326.32,95.634 326.528,95.849 326.685,96.119C326.842,96.389 326.921,96.732 326.921,97.148C326.921,97.581 326.777,97.986 326.491,98.362C326.204,98.739 325.769,99.04 325.187,99.265C324.604,99.491 323.873,99.604 322.995,99.604Z" style="fill:rgb(28,23,75);fill-rule:nonzero;"/>
            <path d="M327.852,99.471L327.852,92.209L330.988,92.209L330.988,99.471L327.852,99.471ZM329.42,91.625C328.846,91.625 328.389,91.479 328.046,91.187C327.704,90.895 327.533,90.532 327.533,90.098C327.533,89.664 327.704,89.302 328.046,89.01C328.389,88.717 328.846,88.571 329.42,88.571C329.993,88.571 330.451,88.709 330.793,88.983C331.136,89.257 331.307,89.611 331.307,90.045C331.307,90.505 331.136,90.884 330.793,91.18C330.451,91.477 329.993,91.625 329.42,91.625Z" style="fill:rgb(28,23,75);fill-rule:nonzero;"/>
            <path d="M336.372,99.604C335.512,99.604 334.752,99.442 334.09,99.119C333.429,98.796 332.909,98.351 332.53,97.785C332.15,97.219 331.961,96.568 331.961,95.833C331.961,95.099 332.15,94.448 332.53,93.882C332.909,93.315 333.429,92.873 334.09,92.554C334.752,92.236 335.512,92.076 336.372,92.076C337.233,92.076 337.996,92.236 338.662,92.554C339.327,92.873 339.848,93.315 340.222,93.882C340.597,94.448 340.784,95.099 340.784,95.833C340.784,96.568 340.597,97.219 340.222,97.785C339.848,98.351 339.327,98.796 338.662,99.119C337.996,99.442 337.233,99.604 336.372,99.604ZM336.372,97.267C336.604,97.267 336.812,97.214 336.997,97.108C337.182,97.002 337.33,96.84 337.441,96.623C337.552,96.406 337.607,96.143 337.607,95.833C337.607,95.515 337.552,95.251 337.441,95.043C337.33,94.835 337.182,94.678 336.997,94.572C336.812,94.466 336.604,94.413 336.372,94.413C336.141,94.413 335.933,94.466 335.748,94.572C335.563,94.678 335.415,94.835 335.304,95.043C335.193,95.251 335.138,95.515 335.138,95.833C335.138,96.143 335.193,96.406 335.304,96.623C335.415,96.84 335.563,97.002 335.748,97.108C335.933,97.214 336.141,97.267 336.372,97.267Z" style="fill:rgb(28,23,75);fill-rule:nonzero;"/>
            <path d="M347.029,92.076C347.612,92.076 348.139,92.189 348.611,92.415C349.082,92.64 349.455,92.992 349.728,93.47C350,93.948 350.137,94.568 350.137,95.329L350.137,99.471L347.001,99.471L347.001,95.847C347.001,95.395 346.918,95.074 346.752,94.884C346.585,94.694 346.359,94.599 346.072,94.599C345.859,94.599 345.663,94.645 345.482,94.738C345.302,94.831 345.159,94.984 345.052,95.196C344.946,95.409 344.893,95.696 344.893,96.059L344.893,99.471L341.757,99.471L341.757,92.209L344.74,92.209L344.74,94.333L344.144,93.722C344.44,93.174 344.84,92.762 345.344,92.488C345.848,92.213 346.41,92.076 347.029,92.076Z" style="fill:rgb(28,23,75);fill-rule:nonzero;"/>
            <path d="M354.453,99.604C353.806,99.604 353.168,99.537 352.539,99.405C351.91,99.272 351.401,99.099 351.013,98.887L351.873,96.909C352.234,97.112 352.652,97.272 353.129,97.387C353.605,97.502 354.07,97.559 354.523,97.559C354.902,97.559 355.159,97.528 355.293,97.466C355.427,97.404 355.494,97.32 355.494,97.214C355.494,97.108 355.415,97.03 355.258,96.982C355.101,96.933 354.893,96.895 354.634,96.869C354.375,96.842 354.09,96.809 353.781,96.769C353.471,96.73 353.159,96.67 352.844,96.59C352.53,96.51 352.243,96.391 351.984,96.232C351.725,96.072 351.517,95.858 351.36,95.588C351.202,95.318 351.124,94.975 351.124,94.559C351.124,94.099 351.27,93.683 351.561,93.311C351.852,92.939 352.287,92.64 352.865,92.415C353.443,92.189 354.157,92.076 355.008,92.076C355.563,92.076 356.118,92.125 356.673,92.222C357.228,92.32 357.704,92.47 358.102,92.674L357.242,94.652C356.853,94.448 356.472,94.309 356.097,94.234C355.723,94.158 355.374,94.121 355.05,94.121C354.652,94.121 354.382,94.156 354.238,94.227C354.095,94.298 354.023,94.377 354.023,94.466C354.023,94.572 354.102,94.652 354.259,94.705C354.416,94.758 354.625,94.798 354.883,94.824C355.142,94.851 355.427,94.884 355.737,94.924C356.047,94.964 356.356,95.026 356.666,95.11C356.976,95.194 357.26,95.316 357.519,95.475C357.778,95.634 357.986,95.849 358.144,96.119C358.301,96.389 358.38,96.732 358.38,97.148C358.38,97.581 358.236,97.986 357.949,98.362C357.663,98.739 357.228,99.04 356.645,99.265C356.063,99.491 355.332,99.604 354.453,99.604Z" style="fill:rgb(28,23,75);fill-rule:nonzero;"/>
            <path d="M367.179,99.683C366.402,99.683 365.709,99.566 365.098,99.332C364.488,99.097 364.007,98.776 363.655,98.369C363.304,97.962 363.128,97.502 363.128,96.988C363.128,96.475 363.246,96.021 363.482,95.628C363.718,95.234 364.083,94.88 364.578,94.566C365.073,94.251 365.699,93.957 366.458,93.683C366.92,93.515 367.283,93.36 367.547,93.218C367.811,93.076 367.998,92.941 368.109,92.813C368.22,92.685 368.275,92.559 368.275,92.435C368.275,92.293 368.227,92.178 368.13,92.09C368.032,92.001 367.887,91.957 367.693,91.957C367.48,91.957 367.316,92.008 367.2,92.109C367.084,92.211 367.027,92.337 367.027,92.488C367.027,92.585 367.052,92.683 367.103,92.78C367.154,92.877 367.253,92.995 367.401,93.132C367.549,93.269 367.757,93.448 368.026,93.669L373.131,97.825L371.452,99.644L365.57,94.811C365.256,94.563 364.997,94.313 364.793,94.061C364.59,93.809 364.437,93.554 364.335,93.298C364.234,93.041 364.183,92.784 364.183,92.528C364.183,92.032 364.328,91.596 364.62,91.22C364.911,90.844 365.318,90.55 365.841,90.337C366.363,90.125 366.976,90.018 367.679,90.018C368.326,90.018 368.89,90.114 369.371,90.304C369.852,90.494 370.227,90.766 370.495,91.12C370.763,91.474 370.897,91.89 370.897,92.368C370.897,92.793 370.784,93.178 370.557,93.523C370.331,93.869 369.984,94.183 369.517,94.466C369.05,94.749 368.46,95.019 367.748,95.276C367.378,95.409 367.078,95.546 366.846,95.687C366.615,95.829 366.449,95.977 366.347,96.132C366.245,96.287 366.194,96.462 366.194,96.656C366.194,96.798 366.243,96.931 366.34,97.055C366.437,97.179 366.576,97.276 366.756,97.347C366.937,97.418 367.156,97.453 367.415,97.453C367.915,97.453 368.384,97.327 368.823,97.075C369.263,96.822 369.642,96.457 369.961,95.979C370.28,95.501 370.5,94.931 370.62,94.267L373.131,94.984C372.918,95.895 372.532,96.705 371.972,97.413C371.413,98.121 370.724,98.677 369.905,99.079C369.087,99.482 368.178,99.683 367.179,99.683Z" style="fill:rgb(28,23,75);fill-rule:nonzero;"/>
            <path d="M377.422,99.471L381.667,90.178L384.886,90.178L389.131,99.471L385.746,99.471L382.61,91.665L383.887,91.665L380.751,99.471L377.422,99.471ZM379.947,97.851L380.779,95.594L385.246,95.594L386.079,97.851L379.947,97.851Z" style="fill:rgb(28,23,75);fill-rule:nonzero;"/>
            <path d="M390.992,99.471L388.356,92.209L391.325,92.209L393.323,98.104L391.894,98.104L393.989,92.209L396.652,92.209L398.65,98.104L397.263,98.104L399.33,92.209L402.077,92.209L399.441,99.471L396.389,99.471L394.793,94.798L395.709,94.798L394.044,99.471L390.992,99.471Z" style="fill:rgb(28,23,75);fill-rule:nonzero;"/>
            <path d="M406.99,99.471L406.99,98.183L406.768,97.838L406.768,95.395C406.768,95.041 406.655,94.771 406.428,94.585C406.201,94.4 405.834,94.307 405.325,94.307C404.983,94.307 404.636,94.358 404.285,94.459C403.933,94.561 403.633,94.7 403.383,94.878L402.384,92.899C402.828,92.634 403.36,92.43 403.979,92.289C404.599,92.147 405.205,92.076 405.797,92.076C407.101,92.076 408.111,92.355 408.828,92.913C409.545,93.47 409.903,94.355 409.903,95.568L409.903,99.471L406.99,99.471ZM404.839,99.604C404.22,99.604 403.702,99.502 403.286,99.298C402.869,99.095 402.555,98.823 402.342,98.482C402.13,98.141 402.023,97.763 402.023,97.347C402.023,96.878 402.148,96.479 402.398,96.152C402.648,95.825 403.029,95.577 403.542,95.409C404.056,95.24 404.705,95.156 405.492,95.156L407.073,95.156L407.073,96.603L405.991,96.603C405.658,96.603 405.415,96.654 405.263,96.756C405.11,96.858 405.034,97.011 405.034,97.214C405.034,97.382 405.101,97.522 405.235,97.632C405.369,97.743 405.552,97.798 405.783,97.798C405.996,97.798 406.192,97.743 406.372,97.632C406.553,97.522 406.685,97.347 406.768,97.108L407.17,97.997C407.05,98.537 406.796,98.94 406.407,99.205C406.019,99.471 405.496,99.604 404.839,99.604Z" style="fill:rgb(28,23,75);fill-rule:nonzero;"/>
            <path d="M411.251,99.471L411.251,92.209L414.234,92.209L414.234,94.4L413.748,93.776C413.979,93.209 414.349,92.784 414.858,92.501C415.367,92.218 415.977,92.076 416.689,92.076L416.689,94.731C416.551,94.714 416.428,94.7 416.322,94.692C416.215,94.683 416.107,94.678 415.996,94.678C415.524,94.678 415.138,94.796 414.837,95.03C414.537,95.265 414.386,95.67 414.386,96.245L414.386,99.471L411.251,99.471Z" style="fill:rgb(28,23,75);fill-rule:nonzero;"/>
            <path d="M420.826,99.604C420.169,99.604 419.561,99.451 419.001,99.146C418.442,98.84 417.995,98.407 417.662,97.845C417.33,97.283 417.163,96.612 417.163,95.833C417.163,95.055 417.33,94.384 417.662,93.822C417.995,93.26 418.442,92.829 419.001,92.528C419.561,92.227 420.169,92.076 420.826,92.076C421.491,92.076 422.037,92.211 422.463,92.481C422.888,92.751 423.203,93.163 423.406,93.716C423.609,94.269 423.711,94.975 423.711,95.833C423.711,96.701 423.616,97.413 423.427,97.971C423.237,98.528 422.932,98.94 422.511,99.205C422.09,99.471 421.528,99.604 420.826,99.604ZM421.575,97.267C421.806,97.267 422.014,97.214 422.199,97.108C422.384,97.002 422.532,96.84 422.643,96.623C422.754,96.406 422.809,96.143 422.809,95.833C422.809,95.515 422.754,95.251 422.643,95.043C422.532,94.835 422.384,94.678 422.199,94.572C422.014,94.466 421.806,94.413 421.575,94.413C421.344,94.413 421.135,94.466 420.95,94.572C420.765,94.678 420.617,94.835 420.506,95.043C420.395,95.251 420.34,95.515 420.34,95.833C420.34,96.143 420.395,96.406 420.506,96.623C420.617,96.84 420.765,97.002 420.95,97.108C421.135,97.214 421.344,97.267 421.575,97.267ZM422.907,99.471L422.907,98.489L422.893,95.833L422.754,93.178L422.754,89.62L425.889,89.62L425.889,99.471L422.907,99.471Z" style="fill:rgb(28,23,75);fill-rule:nonzero;"/>
            <path d="M430.234,99.604C429.586,99.604 428.948,99.537 428.319,99.405C427.69,99.272 427.182,99.099 426.793,98.887L427.653,96.909C428.014,97.112 428.432,97.272 428.909,97.387C429.385,97.502 429.85,97.559 430.303,97.559C430.682,97.559 430.939,97.528 431.073,97.466C431.207,97.404 431.274,97.32 431.274,97.214C431.274,97.108 431.196,97.03 431.038,96.982C430.881,96.933 430.673,96.895 430.414,96.869C430.155,96.842 429.871,96.809 429.561,96.769C429.251,96.73 428.939,96.67 428.624,96.59C428.31,96.51 428.023,96.391 427.764,96.232C427.505,96.072 427.297,95.858 427.14,95.588C426.983,95.318 426.904,94.975 426.904,94.559C426.904,94.099 427.05,93.683 427.341,93.311C427.632,92.939 428.067,92.64 428.645,92.415C429.223,92.189 429.938,92.076 430.789,92.076C431.344,92.076 431.898,92.125 432.453,92.222C433.008,92.32 433.485,92.47 433.882,92.674L433.022,94.652C432.634,94.448 432.252,94.309 431.878,94.234C431.503,94.158 431.154,94.121 430.83,94.121C430.433,94.121 430.162,94.156 430.019,94.227C429.875,94.298 429.804,94.377 429.804,94.466C429.804,94.572 429.882,94.652 430.039,94.705C430.197,94.758 430.405,94.798 430.664,94.824C430.923,94.851 431.207,94.884 431.517,94.924C431.827,94.964 432.137,95.026 432.446,95.11C432.756,95.194 433.041,95.316 433.3,95.475C433.559,95.634 433.767,95.849 433.924,96.119C434.081,96.389 434.16,96.732 434.16,97.148C434.16,97.581 434.016,97.986 433.73,98.362C433.443,98.739 433.008,99.04 432.426,99.265C431.843,99.491 431.112,99.604 430.234,99.604Z" style="fill:rgb(28,23,75);fill-rule:nonzero;"/>
        </g>
    </g>
</svg>
